<mxfile host="app.diagrams.net" modified="2021-10-28T19:08:39.752Z" agent="5.0 (X11)" etag="mYSbHGA1P6TDZJPGsK5G" version="15.5.8" type="github">
  <diagram id="FrNLkrYQDwEc8TwAANah" name="Page-1">
    <mxGraphModel dx="1350" dy="793" grid="1" gridSize="10" guides="1" tooltips="1" connect="1" arrows="1" fold="1" page="1" pageScale="1" pageWidth="827" pageHeight="1169" math="0" shadow="0">
      <root>
        <mxCell id="0" />
        <mxCell id="1" parent="0" />
        <mxCell id="4ntdUVjUCaf3oUWS1OtD-4" value="" style="edgeStyle=orthogonalEdgeStyle;rounded=0;orthogonalLoop=1;jettySize=auto;html=1;" edge="1" parent="1" source="4ntdUVjUCaf3oUWS1OtD-1" target="4ntdUVjUCaf3oUWS1OtD-2">
          <mxGeometry relative="1" as="geometry" />
        </mxCell>
        <mxCell id="4ntdUVjUCaf3oUWS1OtD-1" value="&lt;div&gt;начало &lt;br&gt;&lt;/div&gt;&lt;div&gt;main&lt;br&gt;&lt;/div&gt;" style="rounded=1;whiteSpace=wrap;html=1;" vertex="1" parent="1">
          <mxGeometry x="294" y="90" width="120" height="60" as="geometry" />
        </mxCell>
        <mxCell id="4ntdUVjUCaf3oUWS1OtD-8" value="" style="edgeStyle=orthogonalEdgeStyle;rounded=0;orthogonalLoop=1;jettySize=auto;html=1;" edge="1" parent="1" source="4ntdUVjUCaf3oUWS1OtD-2" target="4ntdUVjUCaf3oUWS1OtD-7">
          <mxGeometry relative="1" as="geometry" />
        </mxCell>
        <mxCell id="4ntdUVjUCaf3oUWS1OtD-2" value="CalcS" style="whiteSpace=wrap;html=1;aspect=fixed;" vertex="1" parent="1">
          <mxGeometry x="294" y="210" width="120" height="120" as="geometry" />
        </mxCell>
        <mxCell id="4ntdUVjUCaf3oUWS1OtD-7" value="&lt;div&gt;конец&lt;/div&gt;&lt;div&gt;main&lt;br&gt;&lt;/div&gt;" style="rounded=1;whiteSpace=wrap;html=1;" vertex="1" parent="1">
          <mxGeometry x="294" y="380" width="120" height="60" as="geometry" />
        </mxCell>
        <mxCell id="4ntdUVjUCaf3oUWS1OtD-9" value="Вычисление площади трех кругов по заданным диаметрам" style="text;html=1;strokeColor=none;fillColor=none;align=center;verticalAlign=middle;whiteSpace=wrap;rounded=0;" vertex="1" parent="1">
          <mxGeometry x="430" y="230" width="250" height="110" as="geometry" />
        </mxCell>
        <mxCell id="4ntdUVjUCaf3oUWS1OtD-31" style="edgeStyle=orthogonalEdgeStyle;rounded=0;orthogonalLoop=1;jettySize=auto;html=1;" edge="1" parent="1" source="4ntdUVjUCaf3oUWS1OtD-34" target="4ntdUVjUCaf3oUWS1OtD-35">
          <mxGeometry relative="1" as="geometry" />
        </mxCell>
        <mxCell id="4ntdUVjUCaf3oUWS1OtD-32" value="" style="edgeStyle=orthogonalEdgeStyle;rounded=0;orthogonalLoop=1;jettySize=auto;html=1;" edge="1" parent="1" source="4ntdUVjUCaf3oUWS1OtD-34" target="4ntdUVjUCaf3oUWS1OtD-39">
          <mxGeometry relative="1" as="geometry" />
        </mxCell>
        <mxCell id="4ntdUVjUCaf3oUWS1OtD-33" style="edgeStyle=orthogonalEdgeStyle;rounded=0;orthogonalLoop=1;jettySize=auto;html=1;entryX=0.417;entryY=0;entryDx=0;entryDy=0;entryPerimeter=0;" edge="1" parent="1" source="4ntdUVjUCaf3oUWS1OtD-34" target="4ntdUVjUCaf3oUWS1OtD-40">
          <mxGeometry relative="1" as="geometry" />
        </mxCell>
        <mxCell id="4ntdUVjUCaf3oUWS1OtD-34" value="CalcS" style="rounded=0;whiteSpace=wrap;html=1;" vertex="1" parent="1">
          <mxGeometry x="310" y="590" width="160" height="90" as="geometry" />
        </mxCell>
        <mxCell id="4ntdUVjUCaf3oUWS1OtD-35" value="Get D" style="rounded=0;whiteSpace=wrap;html=1;" vertex="1" parent="1">
          <mxGeometry x="120" y="730" width="120" height="60" as="geometry" />
        </mxCell>
        <mxCell id="4ntdUVjUCaf3oUWS1OtD-36" value="" style="edgeStyle=orthogonalEdgeStyle;rounded=0;orthogonalLoop=1;jettySize=auto;html=1;" edge="1" parent="1" source="4ntdUVjUCaf3oUWS1OtD-39" target="4ntdUVjUCaf3oUWS1OtD-41">
          <mxGeometry relative="1" as="geometry" />
        </mxCell>
        <mxCell id="4ntdUVjUCaf3oUWS1OtD-37" value="" style="edgeStyle=orthogonalEdgeStyle;rounded=0;orthogonalLoop=1;jettySize=auto;html=1;" edge="1" parent="1" source="4ntdUVjUCaf3oUWS1OtD-39" target="4ntdUVjUCaf3oUWS1OtD-42">
          <mxGeometry relative="1" as="geometry" />
        </mxCell>
        <mxCell id="4ntdUVjUCaf3oUWS1OtD-38" style="edgeStyle=orthogonalEdgeStyle;rounded=0;orthogonalLoop=1;jettySize=auto;html=1;" edge="1" parent="1" source="4ntdUVjUCaf3oUWS1OtD-39" target="4ntdUVjUCaf3oUWS1OtD-47">
          <mxGeometry relative="1" as="geometry" />
        </mxCell>
        <mxCell id="4ntdUVjUCaf3oUWS1OtD-39" value="S" style="rounded=0;whiteSpace=wrap;html=1;" vertex="1" parent="1">
          <mxGeometry x="330" y="790" width="120" height="60" as="geometry" />
        </mxCell>
        <mxCell id="4ntdUVjUCaf3oUWS1OtD-40" value="Out S" style="rounded=0;whiteSpace=wrap;html=1;" vertex="1" parent="1">
          <mxGeometry x="560" y="730" width="120" height="60" as="geometry" />
        </mxCell>
        <mxCell id="4ntdUVjUCaf3oUWS1OtD-41" value="Square D" style="rounded=0;whiteSpace=wrap;html=1;" vertex="1" parent="1">
          <mxGeometry x="510" y="920" width="120" height="60" as="geometry" />
        </mxCell>
        <mxCell id="4ntdUVjUCaf3oUWS1OtD-42" value="Quarter D" style="rounded=0;whiteSpace=wrap;html=1;" vertex="1" parent="1">
          <mxGeometry x="330" y="920" width="120" height="60" as="geometry" />
        </mxCell>
        <mxCell id="4ntdUVjUCaf3oUWS1OtD-43" value="получаем диаметр" style="text;html=1;strokeColor=none;fillColor=none;align=center;verticalAlign=middle;whiteSpace=wrap;rounded=0;" vertex="1" parent="1">
          <mxGeometry x="150" y="820" width="60" height="30" as="geometry" />
        </mxCell>
        <mxCell id="4ntdUVjUCaf3oUWS1OtD-44" value="выводим площадь" style="text;html=1;strokeColor=none;fillColor=none;align=center;verticalAlign=middle;whiteSpace=wrap;rounded=0;" vertex="1" parent="1">
          <mxGeometry x="590" y="805" width="60" height="30" as="geometry" />
        </mxCell>
        <mxCell id="4ntdUVjUCaf3oUWS1OtD-45" value="вычисляем квадрат диаметра" style="text;html=1;strokeColor=none;fillColor=none;align=center;verticalAlign=middle;whiteSpace=wrap;rounded=0;" vertex="1" parent="1">
          <mxGeometry x="520" y="1000" width="90" height="50" as="geometry" />
        </mxCell>
        <mxCell id="4ntdUVjUCaf3oUWS1OtD-46" value="вычисляем четверть квадрата диаметра" style="text;html=1;strokeColor=none;fillColor=none;align=center;verticalAlign=middle;whiteSpace=wrap;rounded=0;" vertex="1" parent="1">
          <mxGeometry x="342.5" y="1000" width="95" height="50" as="geometry" />
        </mxCell>
        <mxCell id="4ntdUVjUCaf3oUWS1OtD-47" value="P * D" style="rounded=0;whiteSpace=wrap;html=1;" vertex="1" parent="1">
          <mxGeometry x="180" y="920" width="120" height="60" as="geometry" />
        </mxCell>
        <mxCell id="4ntdUVjUCaf3oUWS1OtD-48" value="умножаем на p" style="text;html=1;strokeColor=none;fillColor=none;align=center;verticalAlign=middle;whiteSpace=wrap;rounded=0;" vertex="1" parent="1">
          <mxGeometry x="200" y="990" width="80" height="50" as="geometry" />
        </mxCell>
        <mxCell id="4ntdUVjUCaf3oUWS1OtD-57" style="edgeStyle=orthogonalEdgeStyle;rounded=0;orthogonalLoop=1;jettySize=auto;html=1;" edge="1" parent="1" source="4ntdUVjUCaf3oUWS1OtD-50" target="4ntdUVjUCaf3oUWS1OtD-56">
          <mxGeometry relative="1" as="geometry" />
        </mxCell>
        <mxCell id="4ntdUVjUCaf3oUWS1OtD-50" value="&lt;div&gt;начало &lt;br&gt;&lt;/div&gt;&lt;div&gt;calcS&lt;br&gt;&lt;/div&gt;" style="rounded=1;whiteSpace=wrap;html=1;" vertex="1" parent="1">
          <mxGeometry x="330" y="1190" width="120" height="60" as="geometry" />
        </mxCell>
        <mxCell id="4ntdUVjUCaf3oUWS1OtD-53" value="&lt;div&gt;конец&lt;/div&gt;&lt;div&gt;calcS&lt;br&gt;&lt;/div&gt;" style="rounded=1;whiteSpace=wrap;html=1;" vertex="1" parent="1">
          <mxGeometry x="330" y="1810" width="120" height="60" as="geometry" />
        </mxCell>
        <mxCell id="4ntdUVjUCaf3oUWS1OtD-54" value="Вычисление площади трех кругов по заданным диаметрам" style="text;html=1;strokeColor=none;fillColor=none;align=center;verticalAlign=middle;whiteSpace=wrap;rounded=0;" vertex="1" parent="1">
          <mxGeometry x="460" y="1500" width="250" height="110" as="geometry" />
        </mxCell>
        <mxCell id="4ntdUVjUCaf3oUWS1OtD-64" value="" style="edgeStyle=orthogonalEdgeStyle;rounded=0;orthogonalLoop=1;jettySize=auto;html=1;" edge="1" parent="1" source="4ntdUVjUCaf3oUWS1OtD-56" target="4ntdUVjUCaf3oUWS1OtD-63">
          <mxGeometry relative="1" as="geometry" />
        </mxCell>
        <mxCell id="4ntdUVjUCaf3oUWS1OtD-56" value="Get D" style="rounded=0;whiteSpace=wrap;html=1;" vertex="1" parent="1">
          <mxGeometry x="330" y="1370" width="120" height="60" as="geometry" />
        </mxCell>
        <mxCell id="4ntdUVjUCaf3oUWS1OtD-61" value="" style="edgeStyle=orthogonalEdgeStyle;rounded=0;orthogonalLoop=1;jettySize=auto;html=1;" edge="1" parent="1" source="4ntdUVjUCaf3oUWS1OtD-59" target="4ntdUVjUCaf3oUWS1OtD-53">
          <mxGeometry relative="1" as="geometry" />
        </mxCell>
        <mxCell id="4ntdUVjUCaf3oUWS1OtD-59" value="Out S" style="rounded=0;whiteSpace=wrap;html=1;" vertex="1" parent="1">
          <mxGeometry x="330" y="1660" width="120" height="60" as="geometry" />
        </mxCell>
        <mxCell id="4ntdUVjUCaf3oUWS1OtD-62" value="Ввод диаметров кругов" style="text;html=1;strokeColor=none;fillColor=none;align=center;verticalAlign=middle;whiteSpace=wrap;rounded=0;" vertex="1" parent="1">
          <mxGeometry x="480" y="1377.5" width="160" height="45" as="geometry" />
        </mxCell>
        <mxCell id="4ntdUVjUCaf3oUWS1OtD-65" value="" style="edgeStyle=orthogonalEdgeStyle;rounded=0;orthogonalLoop=1;jettySize=auto;html=1;" edge="1" parent="1" source="4ntdUVjUCaf3oUWS1OtD-63" target="4ntdUVjUCaf3oUWS1OtD-59">
          <mxGeometry relative="1" as="geometry" />
        </mxCell>
        <mxCell id="4ntdUVjUCaf3oUWS1OtD-63" value="CalculS" style="rounded=0;whiteSpace=wrap;html=1;" vertex="1" parent="1">
          <mxGeometry x="330" y="1530" width="120" height="60" as="geometry" />
        </mxCell>
        <mxCell id="4ntdUVjUCaf3oUWS1OtD-66" value="вывод площадей окружностей" style="text;html=1;strokeColor=none;fillColor=none;align=center;verticalAlign=middle;whiteSpace=wrap;rounded=0;" vertex="1" parent="1">
          <mxGeometry x="500" y="1655" width="170" height="65" as="geometry" />
        </mxCell>
        <mxCell id="4ntdUVjUCaf3oUWS1OtD-69" value="" style="edgeStyle=orthogonalEdgeStyle;rounded=0;orthogonalLoop=1;jettySize=auto;html=1;" edge="1" parent="1" source="4ntdUVjUCaf3oUWS1OtD-67" target="4ntdUVjUCaf3oUWS1OtD-68">
          <mxGeometry relative="1" as="geometry" />
        </mxCell>
        <mxCell id="4ntdUVjUCaf3oUWS1OtD-67" value="&lt;div&gt;начало&lt;/div&gt;&lt;div&gt; CalculS&lt;/div&gt;" style="rounded=1;whiteSpace=wrap;html=1;" vertex="1" parent="1">
          <mxGeometry x="340" y="2010" width="120" height="60" as="geometry" />
        </mxCell>
        <mxCell id="4ntdUVjUCaf3oUWS1OtD-71" value="" style="edgeStyle=orthogonalEdgeStyle;rounded=0;orthogonalLoop=1;jettySize=auto;html=1;" edge="1" parent="1" source="4ntdUVjUCaf3oUWS1OtD-68" target="4ntdUVjUCaf3oUWS1OtD-70">
          <mxGeometry relative="1" as="geometry" />
        </mxCell>
        <mxCell id="4ntdUVjUCaf3oUWS1OtD-68" value="Square D" style="rounded=0;whiteSpace=wrap;html=1;" vertex="1" parent="1">
          <mxGeometry x="340" y="2140" width="120" height="60" as="geometry" />
        </mxCell>
        <mxCell id="4ntdUVjUCaf3oUWS1OtD-73" value="" style="edgeStyle=orthogonalEdgeStyle;rounded=0;orthogonalLoop=1;jettySize=auto;html=1;" edge="1" parent="1" source="4ntdUVjUCaf3oUWS1OtD-70" target="4ntdUVjUCaf3oUWS1OtD-72">
          <mxGeometry relative="1" as="geometry" />
        </mxCell>
        <mxCell id="4ntdUVjUCaf3oUWS1OtD-70" value="Quarter D" style="rounded=0;whiteSpace=wrap;html=1;" vertex="1" parent="1">
          <mxGeometry x="340" y="2270" width="120" height="60" as="geometry" />
        </mxCell>
        <mxCell id="4ntdUVjUCaf3oUWS1OtD-88" style="edgeStyle=orthogonalEdgeStyle;rounded=0;orthogonalLoop=1;jettySize=auto;html=1;entryX=0.5;entryY=0;entryDx=0;entryDy=0;" edge="1" parent="1" source="4ntdUVjUCaf3oUWS1OtD-72" target="4ntdUVjUCaf3oUWS1OtD-81">
          <mxGeometry relative="1" as="geometry" />
        </mxCell>
        <mxCell id="4ntdUVjUCaf3oUWS1OtD-72" value="D * P" style="rounded=0;whiteSpace=wrap;html=1;" vertex="1" parent="1">
          <mxGeometry x="340" y="2380" width="120" height="60" as="geometry" />
        </mxCell>
        <mxCell id="4ntdUVjUCaf3oUWS1OtD-74" value="&lt;div&gt;конец&lt;/div&gt;&lt;div&gt;CalculS&lt;br&gt;&lt;/div&gt;" style="rounded=1;whiteSpace=wrap;html=1;" vertex="1" parent="1">
          <mxGeometry x="340" y="3160" width="120" height="60" as="geometry" />
        </mxCell>
        <mxCell id="4ntdUVjUCaf3oUWS1OtD-76" value="вычисляем&amp;nbsp; квадрат диаметра окружностей по D1" style="text;html=1;strokeColor=none;fillColor=none;align=center;verticalAlign=middle;whiteSpace=wrap;rounded=0;" vertex="1" parent="1">
          <mxGeometry x="500" y="2150" width="170" height="60" as="geometry" />
        </mxCell>
        <mxCell id="4ntdUVjUCaf3oUWS1OtD-77" value="Вычисляем четверть квадрата диметра окружностей по D1" style="text;html=1;strokeColor=none;fillColor=none;align=center;verticalAlign=middle;whiteSpace=wrap;rounded=0;" vertex="1" parent="1">
          <mxGeometry x="500" y="2270" width="190" height="60" as="geometry" />
        </mxCell>
        <mxCell id="4ntdUVjUCaf3oUWS1OtD-78" value="Вычисляем площадь S1 по заданным параметрам D1,Pi" style="text;html=1;strokeColor=none;fillColor=none;align=center;verticalAlign=middle;whiteSpace=wrap;rounded=0;" vertex="1" parent="1">
          <mxGeometry x="510" y="2390" width="160" height="60" as="geometry" />
        </mxCell>
        <mxCell id="4ntdUVjUCaf3oUWS1OtD-79" value="&lt;div&gt;Вычисление площадей окружностей по заданным диаметрам D1,D2,D3&lt;/div&gt;&lt;div&gt;выходные параметры S1,S2,S3&lt;br&gt;&lt;/div&gt;" style="text;html=1;strokeColor=none;fillColor=none;align=center;verticalAlign=middle;whiteSpace=wrap;rounded=0;" vertex="1" parent="1">
          <mxGeometry x="510" y="2020" width="150" height="70" as="geometry" />
        </mxCell>
        <mxCell id="4ntdUVjUCaf3oUWS1OtD-80" value="" style="edgeStyle=orthogonalEdgeStyle;rounded=0;orthogonalLoop=1;jettySize=auto;html=1;" edge="1" parent="1" source="4ntdUVjUCaf3oUWS1OtD-81" target="4ntdUVjUCaf3oUWS1OtD-83">
          <mxGeometry relative="1" as="geometry" />
        </mxCell>
        <mxCell id="4ntdUVjUCaf3oUWS1OtD-81" value="Square D" style="rounded=0;whiteSpace=wrap;html=1;" vertex="1" parent="1">
          <mxGeometry x="340" y="2500" width="120" height="60" as="geometry" />
        </mxCell>
        <mxCell id="4ntdUVjUCaf3oUWS1OtD-82" value="" style="edgeStyle=orthogonalEdgeStyle;rounded=0;orthogonalLoop=1;jettySize=auto;html=1;" edge="1" parent="1" source="4ntdUVjUCaf3oUWS1OtD-83" target="4ntdUVjUCaf3oUWS1OtD-84">
          <mxGeometry relative="1" as="geometry" />
        </mxCell>
        <mxCell id="4ntdUVjUCaf3oUWS1OtD-83" value="Quarter D" style="rounded=0;whiteSpace=wrap;html=1;" vertex="1" parent="1">
          <mxGeometry x="340" y="2610" width="120" height="60" as="geometry" />
        </mxCell>
        <mxCell id="4ntdUVjUCaf3oUWS1OtD-106" style="edgeStyle=orthogonalEdgeStyle;rounded=0;orthogonalLoop=1;jettySize=auto;html=1;entryX=0.5;entryY=0;entryDx=0;entryDy=0;" edge="1" parent="1" source="4ntdUVjUCaf3oUWS1OtD-84" target="4ntdUVjUCaf3oUWS1OtD-98">
          <mxGeometry relative="1" as="geometry" />
        </mxCell>
        <mxCell id="4ntdUVjUCaf3oUWS1OtD-84" value="D * P" style="rounded=0;whiteSpace=wrap;html=1;" vertex="1" parent="1">
          <mxGeometry x="340" y="2730" width="120" height="60" as="geometry" />
        </mxCell>
        <mxCell id="4ntdUVjUCaf3oUWS1OtD-85" value="вычисляем квадрат диаметра окружностей по D2" style="text;html=1;strokeColor=none;fillColor=none;align=center;verticalAlign=middle;whiteSpace=wrap;rounded=0;" vertex="1" parent="1">
          <mxGeometry x="500" y="2500" width="170" height="60" as="geometry" />
        </mxCell>
        <mxCell id="4ntdUVjUCaf3oUWS1OtD-86" value="Вычисляем четверть квадрата диметра окружностей по D2" style="text;html=1;strokeColor=none;fillColor=none;align=center;verticalAlign=middle;whiteSpace=wrap;rounded=0;" vertex="1" parent="1">
          <mxGeometry x="500" y="2620" width="190" height="60" as="geometry" />
        </mxCell>
        <mxCell id="4ntdUVjUCaf3oUWS1OtD-87" value="Вычисляем площадь S2 по заданным параметрам D2,,Pi" style="text;html=1;strokeColor=none;fillColor=none;align=center;verticalAlign=middle;whiteSpace=wrap;rounded=0;" vertex="1" parent="1">
          <mxGeometry x="510" y="2740" width="160" height="60" as="geometry" />
        </mxCell>
        <mxCell id="4ntdUVjUCaf3oUWS1OtD-97" value="" style="edgeStyle=orthogonalEdgeStyle;rounded=0;orthogonalLoop=1;jettySize=auto;html=1;" edge="1" parent="1" source="4ntdUVjUCaf3oUWS1OtD-98" target="4ntdUVjUCaf3oUWS1OtD-100">
          <mxGeometry relative="1" as="geometry" />
        </mxCell>
        <mxCell id="4ntdUVjUCaf3oUWS1OtD-98" value="Square D" style="rounded=0;whiteSpace=wrap;html=1;" vertex="1" parent="1">
          <mxGeometry x="340" y="2830" width="120" height="60" as="geometry" />
        </mxCell>
        <mxCell id="4ntdUVjUCaf3oUWS1OtD-99" value="" style="edgeStyle=orthogonalEdgeStyle;rounded=0;orthogonalLoop=1;jettySize=auto;html=1;" edge="1" parent="1" source="4ntdUVjUCaf3oUWS1OtD-100" target="4ntdUVjUCaf3oUWS1OtD-101">
          <mxGeometry relative="1" as="geometry" />
        </mxCell>
        <mxCell id="4ntdUVjUCaf3oUWS1OtD-100" value="Quarter D" style="rounded=0;whiteSpace=wrap;html=1;" vertex="1" parent="1">
          <mxGeometry x="340" y="2920" width="120" height="60" as="geometry" />
        </mxCell>
        <mxCell id="4ntdUVjUCaf3oUWS1OtD-105" style="edgeStyle=orthogonalEdgeStyle;rounded=0;orthogonalLoop=1;jettySize=auto;html=1;entryX=0.5;entryY=0;entryDx=0;entryDy=0;" edge="1" parent="1" source="4ntdUVjUCaf3oUWS1OtD-101" target="4ntdUVjUCaf3oUWS1OtD-74">
          <mxGeometry relative="1" as="geometry" />
        </mxCell>
        <mxCell id="4ntdUVjUCaf3oUWS1OtD-101" value="D * P" style="rounded=0;whiteSpace=wrap;html=1;" vertex="1" parent="1">
          <mxGeometry x="340" y="3040" width="120" height="60" as="geometry" />
        </mxCell>
        <mxCell id="4ntdUVjUCaf3oUWS1OtD-102" value="вычисляем квадрат диаметра окружностей по D3" style="text;html=1;strokeColor=none;fillColor=none;align=center;verticalAlign=middle;whiteSpace=wrap;rounded=0;" vertex="1" parent="1">
          <mxGeometry x="505" y="2830" width="170" height="60" as="geometry" />
        </mxCell>
        <mxCell id="4ntdUVjUCaf3oUWS1OtD-103" value="Вычисляем четверть квадрата диметра окружностей по D3" style="text;html=1;strokeColor=none;fillColor=none;align=center;verticalAlign=middle;whiteSpace=wrap;rounded=0;" vertex="1" parent="1">
          <mxGeometry x="500" y="2930" width="190" height="60" as="geometry" />
        </mxCell>
        <mxCell id="4ntdUVjUCaf3oUWS1OtD-104" value="Вычисляем площадь S3 по заданным параметрам D3,Pi" style="text;html=1;strokeColor=none;fillColor=none;align=center;verticalAlign=middle;whiteSpace=wrap;rounded=0;" vertex="1" parent="1">
          <mxGeometry x="510" y="3050" width="160" height="60" as="geometry" />
        </mxCell>
        <mxCell id="4ntdUVjUCaf3oUWS1OtD-110" value="" style="edgeStyle=orthogonalEdgeStyle;rounded=0;orthogonalLoop=1;jettySize=auto;html=1;" edge="1" parent="1" source="4ntdUVjUCaf3oUWS1OtD-108" target="4ntdUVjUCaf3oUWS1OtD-109">
          <mxGeometry relative="1" as="geometry" />
        </mxCell>
        <mxCell id="4ntdUVjUCaf3oUWS1OtD-108" value="&lt;div&gt;начало &lt;br&gt;&lt;/div&gt;&lt;div&gt;Square D&lt;/div&gt;" style="rounded=1;whiteSpace=wrap;html=1;" vertex="1" parent="1">
          <mxGeometry x="342.5" y="3310" width="120" height="60" as="geometry" />
        </mxCell>
        <mxCell id="4ntdUVjUCaf3oUWS1OtD-114" value="" style="edgeStyle=orthogonalEdgeStyle;rounded=0;orthogonalLoop=1;jettySize=auto;html=1;" edge="1" parent="1" source="4ntdUVjUCaf3oUWS1OtD-109" target="4ntdUVjUCaf3oUWS1OtD-113">
          <mxGeometry relative="1" as="geometry" />
        </mxCell>
        <mxCell id="4ntdUVjUCaf3oUWS1OtD-109" value="sq := d * d" style="rounded=0;whiteSpace=wrap;html=1;" vertex="1" parent="1">
          <mxGeometry x="342.5" y="3440" width="120" height="60" as="geometry" />
        </mxCell>
        <mxCell id="4ntdUVjUCaf3oUWS1OtD-113" value="&lt;div&gt;конец&lt;/div&gt;&lt;div&gt;Square D&lt;br&gt;&lt;/div&gt;" style="rounded=1;whiteSpace=wrap;html=1;" vertex="1" parent="1">
          <mxGeometry x="342.5" y="3560" width="120" height="60" as="geometry" />
        </mxCell>
        <mxCell id="4ntdUVjUCaf3oUWS1OtD-115" value="&lt;div&gt;Вычисление квадрата диаметра одной из окружностей. Входные параметры: d,&lt;/div&gt;&lt;div&gt;Выходные параметры sq&amp;nbsp; &lt;/div&gt;" style="text;html=1;strokeColor=none;fillColor=none;align=center;verticalAlign=middle;whiteSpace=wrap;rounded=0;" vertex="1" parent="1">
          <mxGeometry x="505" y="3310" width="175" height="90" as="geometry" />
        </mxCell>
        <mxCell id="4ntdUVjUCaf3oUWS1OtD-116" value="Вычисление квадрата диаметра одной из окружностей" style="text;html=1;strokeColor=none;fillColor=none;align=center;verticalAlign=middle;whiteSpace=wrap;rounded=0;" vertex="1" parent="1">
          <mxGeometry x="525" y="3445" width="165" height="55" as="geometry" />
        </mxCell>
        <mxCell id="4ntdUVjUCaf3oUWS1OtD-121" style="edgeStyle=orthogonalEdgeStyle;rounded=0;orthogonalLoop=1;jettySize=auto;html=1;entryX=0.5;entryY=0;entryDx=0;entryDy=0;" edge="1" parent="1" source="4ntdUVjUCaf3oUWS1OtD-117" target="4ntdUVjUCaf3oUWS1OtD-120">
          <mxGeometry relative="1" as="geometry" />
        </mxCell>
        <mxCell id="4ntdUVjUCaf3oUWS1OtD-117" value="&lt;div&gt;начало&lt;/div&gt;&lt;div&gt;Quarter D&lt;/div&gt;" style="rounded=1;whiteSpace=wrap;html=1;" vertex="1" parent="1">
          <mxGeometry x="342.5" y="3680" width="120" height="60" as="geometry" />
        </mxCell>
        <mxCell id="4ntdUVjUCaf3oUWS1OtD-118" value="&lt;div&gt;Вычисление четверть квадрата диаметра одной из окружностей. Входные параметры: d,&lt;/div&gt;&lt;div&gt;Выходные параметры q &lt;/div&gt;" style="text;html=1;strokeColor=none;fillColor=none;align=center;verticalAlign=middle;whiteSpace=wrap;rounded=0;" vertex="1" parent="1">
          <mxGeometry x="505" y="3665" width="175" height="90" as="geometry" />
        </mxCell>
        <mxCell id="4ntdUVjUCaf3oUWS1OtD-125" style="edgeStyle=orthogonalEdgeStyle;rounded=0;orthogonalLoop=1;jettySize=auto;html=1;entryX=0.5;entryY=0;entryDx=0;entryDy=0;" edge="1" parent="1" source="4ntdUVjUCaf3oUWS1OtD-120" target="4ntdUVjUCaf3oUWS1OtD-124">
          <mxGeometry relative="1" as="geometry" />
        </mxCell>
        <mxCell id="4ntdUVjUCaf3oUWS1OtD-120" value="q = d/4" style="rounded=0;whiteSpace=wrap;html=1;" vertex="1" parent="1">
          <mxGeometry x="342.5" y="3800" width="120" height="60" as="geometry" />
        </mxCell>
        <mxCell id="4ntdUVjUCaf3oUWS1OtD-123" value="Вычисление четверти квадрата диаметра одной из окружностей" style="text;html=1;strokeColor=none;fillColor=none;align=center;verticalAlign=middle;whiteSpace=wrap;rounded=0;" vertex="1" parent="1">
          <mxGeometry x="512.5" y="3800" width="165" height="55" as="geometry" />
        </mxCell>
        <mxCell id="4ntdUVjUCaf3oUWS1OtD-124" value="&lt;div&gt;конец&lt;br&gt;&lt;/div&gt;&lt;div&gt;Quarter D&lt;/div&gt;" style="rounded=1;whiteSpace=wrap;html=1;" vertex="1" parent="1">
          <mxGeometry x="342.5" y="3920" width="120" height="60" as="geometry" />
        </mxCell>
        <mxCell id="4ntdUVjUCaf3oUWS1OtD-126" style="edgeStyle=orthogonalEdgeStyle;rounded=0;orthogonalLoop=1;jettySize=auto;html=1;entryX=0.5;entryY=0;entryDx=0;entryDy=0;" edge="1" parent="1" source="4ntdUVjUCaf3oUWS1OtD-127" target="4ntdUVjUCaf3oUWS1OtD-130">
          <mxGeometry relative="1" as="geometry" />
        </mxCell>
        <mxCell id="4ntdUVjUCaf3oUWS1OtD-127" value="&lt;div&gt;начало&lt;/div&gt;&lt;div&gt;P * D&lt;br&gt;&lt;/div&gt;" style="rounded=1;whiteSpace=wrap;html=1;" vertex="1" parent="1">
          <mxGeometry x="342.5" y="4035" width="120" height="60" as="geometry" />
        </mxCell>
        <mxCell id="4ntdUVjUCaf3oUWS1OtD-128" value="&lt;div&gt;Умножение вычисленного диаметра окружности на Пи . Входные параметры: d,p&lt;/div&gt;&lt;div&gt;Выходные параметры s &lt;/div&gt;" style="text;html=1;strokeColor=none;fillColor=none;align=center;verticalAlign=middle;whiteSpace=wrap;rounded=0;" vertex="1" parent="1">
          <mxGeometry x="505" y="4020" width="175" height="90" as="geometry" />
        </mxCell>
        <mxCell id="4ntdUVjUCaf3oUWS1OtD-129" style="edgeStyle=orthogonalEdgeStyle;rounded=0;orthogonalLoop=1;jettySize=auto;html=1;entryX=0.5;entryY=0;entryDx=0;entryDy=0;" edge="1" parent="1" source="4ntdUVjUCaf3oUWS1OtD-130" target="4ntdUVjUCaf3oUWS1OtD-132">
          <mxGeometry relative="1" as="geometry" />
        </mxCell>
        <mxCell id="4ntdUVjUCaf3oUWS1OtD-130" value="s = p * d" style="rounded=0;whiteSpace=wrap;html=1;" vertex="1" parent="1">
          <mxGeometry x="342.5" y="4155" width="120" height="60" as="geometry" />
        </mxCell>
        <mxCell id="4ntdUVjUCaf3oUWS1OtD-131" value="Умножение вычисленного диаметра окружности на Пи" style="text;html=1;strokeColor=none;fillColor=none;align=center;verticalAlign=middle;whiteSpace=wrap;rounded=0;" vertex="1" parent="1">
          <mxGeometry x="512.5" y="4155" width="165" height="55" as="geometry" />
        </mxCell>
        <mxCell id="4ntdUVjUCaf3oUWS1OtD-132" value="&lt;div&gt;конец&lt;br&gt;&lt;/div&gt;&lt;div&gt;P * D&lt;br&gt;&lt;/div&gt;" style="rounded=1;whiteSpace=wrap;html=1;" vertex="1" parent="1">
          <mxGeometry x="342.5" y="4275" width="120" height="60" as="geometry" />
        </mxCell>
      </root>
    </mxGraphModel>
  </diagram>
</mxfile>
